M48
;DRILL file {Pcbnew (2013-07-07 BZR 4022)-stable} date 10/24/2013 12:22:44 AM
;FORMAT={2:4/ absolute / inch / suppress leading zeros}
FMAT,2
INCH,TZ
T1C0.012
T2C0.015
T3C0.020
T4C0.021
T5C0.028
T6C0.032
T7C0.036
T8C0.038
T9C0.052
T10C0.092
T11C0.100
%
G90
G05
M72
T1
X13455Y-19341
X13583Y-16516
X13632Y-21614
X13760Y-15256
X13819Y-16161
X14114Y-16870
X14291Y-29035
X14311Y-30236
X14429Y-15512
X14449Y-16969
X14902Y-15984
X14902Y-16299
X14902Y-32008
X14921Y-29488
X14970Y-24213
X15030Y-18337
X15118Y-30118
X15118Y-31378
X15217Y-15984
X15217Y-16299
X15650Y-15354
X15748Y-17559
X15748Y-27303
X15748Y-30118
X15748Y-31378
X15906Y-15571
X16063Y-17559
X16063Y-27618
X16063Y-32008
X16083Y-26417
X16102Y-29252
X16142Y-16634
X16240Y-12303
X16260Y-27874
X16378Y-14193
X16398Y-26516
X16417Y-21683
X16535Y-16929
X16673Y-22874
X16693Y-23463
X16693Y-23957
X16693Y-30118
X16693Y-31378
X16693Y-32008
X16732Y-14370
X16752Y-26949
X16831Y-17224
X16870Y-19341
X16909Y-27224
X16909Y-29469
X16929Y-16102
X16929Y-16457
X16929Y-26004
X17008Y-33268
X17008Y-32008
X17028Y-22776
X17126Y-14370
X17126Y-17028
X17205Y-16673
X17205Y-26437
X17205Y-29665
X17323Y-32008
X17441Y-23543
X17520Y-16673
X17520Y-22904
X17539Y-17697
X17539Y-19311
X17638Y-30118
X17638Y-31378
X17638Y-32008
X17717Y-23474
X17854Y-27087
X17854Y-27992
X17854Y-29469
X17874Y-22283
X17953Y-33268
X17953Y-32008
X18012Y-13917
X18130Y-27362
X18169Y-29646
X18268Y-32008
X18287Y-18268
X18425Y-19941
X18563Y-26732
X18583Y-19665
X18583Y-30118
X18583Y-31378
X18583Y-32008
X18602Y-27992
X18622Y-26063
X18642Y-16929
X18671Y-14478
X18671Y-15059
X18839Y-26280
X18839Y-29469
X18878Y-22559
X18898Y-32008
X18898Y-33268
X19045Y-12598
X19154Y-29665
X19213Y-24173
X19213Y-32008
X19252Y-22579
X19291Y-24567
X19409Y-24843
X19409Y-25256
X19488Y-24055
X19528Y-30118
X19528Y-31378
X19528Y-32008
X19744Y-15157
X19823Y-29488
X19843Y-32008
X19843Y-33268
X20000Y-23681
X20020Y-16063
X20079Y-19331
X20138Y-29665
X20157Y-23406
X20157Y-32008
X20236Y-24843
X20374Y-25433
X20472Y-30118
X20472Y-31378
X20472Y-32008
X20610Y-25217
X20709Y-24744
X20728Y-21614
X20787Y-32008
X20787Y-33268
X20807Y-29528
X20913Y-16295
X21004Y-25157
X21024Y-25551
X21102Y-32008
X21122Y-21713
X21122Y-29724
X21161Y-21122
X21220Y-22972
X21240Y-24961
X21313Y-16295
X21378Y-25354
X21417Y-30118
X21417Y-31378
X21417Y-32008
X21457Y-21713
X21535Y-19587
X21535Y-23130
X21594Y-23445
X21713Y-16295
X21732Y-32008
X21732Y-33268
X21752Y-24921
X21791Y-29528
X22008Y-23209
X22008Y-23504
X22047Y-18996
X22047Y-25039
X22047Y-32008
X22067Y-29764
X22106Y-28150
X22113Y-16295
X22205Y-20256
X22205Y-20571
X22205Y-22146
X22362Y-30118
X22362Y-31378
X22362Y-32008
X22402Y-23209
X22402Y-23504
X22520Y-20571
X22520Y-20886
X22520Y-21201
X22520Y-21831
X22520Y-22146
X22520Y-22461
X22677Y-32008
X22677Y-33268
X22835Y-16634
X22835Y-17598
X22835Y-18287
X22835Y-19173
X22835Y-20256
X22835Y-20571
X22835Y-20886
X22835Y-21201
X22835Y-21831
X22835Y-22146
X22854Y-27756
X22992Y-30118
X22992Y-31378
X22992Y-32008
X23071Y-29764
X23091Y-29449
X23150Y-20886
X23150Y-21201
X23150Y-21831
X23150Y-22146
X23150Y-22461
X23150Y-27854
X23307Y-23228
X23307Y-32008
X23327Y-28110
X23465Y-20571
X23465Y-20886
X23465Y-21831
X23465Y-22146
X23465Y-27283
X23613Y-16295
X23622Y-32008
X23622Y-33268
X23760Y-21220
X23780Y-19941
X23780Y-20256
X23780Y-20886
X23780Y-21516
X23780Y-22461
X23819Y-29744
X23917Y-27047
X23917Y-28051
X23937Y-30118
X23937Y-31378
X23937Y-32008
X24013Y-16295
X24016Y-18661
X24035Y-19547
X24075Y-29469
X24094Y-20256
X24094Y-21201
X24094Y-21831
X24094Y-22146
X24252Y-32008
X24311Y-17835
X24311Y-26909
X24409Y-20256
X24409Y-21516
X24409Y-21831
X24409Y-22146
X24413Y-16295
X24429Y-25472
X24508Y-28051
X24567Y-32008
X24567Y-33268
X24705Y-19429
X24803Y-18189
X24803Y-25630
X24803Y-29744
X24813Y-16295
X24843Y-26929
X24882Y-30118
X24882Y-31378
X24882Y-32008
X25059Y-29469
X25079Y-23130
X25079Y-26555
X25197Y-18957
X25197Y-32008
X25256Y-26870
X25413Y-25315
X25472Y-21673
X25512Y-32008
X25512Y-33268
X25571Y-26535
X25620Y-16634
X25620Y-17884
X25768Y-26280
X25768Y-27618
X25787Y-18209
X25787Y-18681
X25787Y-29744
X25827Y-30118
X25827Y-31378
X25827Y-32008
X26004Y-26083
X26043Y-29469
X26142Y-32008
X26280Y-25945
X26457Y-32008
X26457Y-33268
X26555Y-26102
X26772Y-30118
X26772Y-31378
X26772Y-32008
X26811Y-29764
X26870Y-26476
X27028Y-29469
X27087Y-32008
X27165Y-14764
X27402Y-32008
X27402Y-33268
X27461Y-25906
X27461Y-26476
X27480Y-18917
X27717Y-30118
X27717Y-31378
X27717Y-32008
X27756Y-29744
X27894Y-17323
X27933Y-26004
X27953Y-19291
X27953Y-25039
X28012Y-29469
X28031Y-32008
X28051Y-26476
X28150Y-14764
X28346Y-32008
X28346Y-33268
X28661Y-17008
X28661Y-30118
X28661Y-31378
X28661Y-32008
X28720Y-29744
X28740Y-17323
X28819Y-26476
X28976Y-32008
X28996Y-29469
X29232Y-15256
X29232Y-26004
X29252Y-25531
X29291Y-32008
X29291Y-33268
X29429Y-20807
X29429Y-26398
X29488Y-22224
X29606Y-30118
X29606Y-31378
X29606Y-32008
X29705Y-12894
X29705Y-29744
X29843Y-20650
X29843Y-24843
X29862Y-21083
X29921Y-32008
X29980Y-29469
X30020Y-25886
X30020Y-26220
X30079Y-25098
X30217Y-26476
X30236Y-33268
X30236Y-32008
X30551Y-30118
X30551Y-31378
X30551Y-32008
X30551Y-33268
X31299Y-17323
X31496Y-17579
X31693Y-17323
X31693Y-24213
X31713Y-12894
T2
X13091Y-28169
X13455Y-21909
X13465Y-18740
X13465Y-19882
X13632Y-20463
X13632Y-20896
X13819Y-28169
X13839Y-18740
X13878Y-21850
X13878Y-22215
X14016Y-27067
X14173Y-26280
X14464Y-21622
X14464Y-21882
X14665Y-26280
X14764Y-21622
X14764Y-21882
X14882Y-28917
X15064Y-21622
X15064Y-21882
X15118Y-33228
X15630Y-23463
X15846Y-25984
X16024Y-33228
X16417Y-33228
X16427Y-20276
X16496Y-22126
X16850Y-18799
X16850Y-19882
X17776Y-19626
X18996Y-20886
X18996Y-21280
X18996Y-21673
X19016Y-22264
X19193Y-18996
X19783Y-20925
X19783Y-21673
X19823Y-22126
X19980Y-16831
X20157Y-18642
X20295Y-24508
X20610Y-18642
X22933Y-24232
X22933Y-25059
X23563Y-24232
X23563Y-25059
X23858Y-17756
X24764Y-17756
X25000Y-24724
X25413Y-24449
X26083Y-14665
X26378Y-19193
X26378Y-20177
X26378Y-21398
X26378Y-22146
X26378Y-22835
X27165Y-19193
X27165Y-20118
X27165Y-20492
X27165Y-21398
X27165Y-22146
X27165Y-22835
X28248Y-21142
X28248Y-21516
X29228Y-16799
X29228Y-17059
X29528Y-16799
X29528Y-17059
X29828Y-16799
X29828Y-17059
X31102Y-23425
T3
X13976Y-28642
X13976Y-29331
X14469Y-27854
X15748Y-20571
X16014Y-21762
X16260Y-20669
X16831Y-21752
X16929Y-13150
X18996Y-15827
X19094Y-13041
X19587Y-15728
X19606Y-14213
X20059Y-18209
X20256Y-17618
X24311Y-17303
X26102Y-17697
X26575Y-17697
X27224Y-18602
X27461Y-17618
X27756Y-16929
X30709Y-17657
T4
X31246Y-20654
X31246Y-21154
X31246Y-21654
X31246Y-22154
X31246Y-22654
X31746Y-20654
X31746Y-21154
X31746Y-21654
X31746Y-22154
X31746Y-22654
T5
X21161Y-15551
X21850Y-15551
X22835Y-15551
X23819Y-15551
X24508Y-15551
T6
X14075Y-13681
X14075Y-14469
X14862Y-13681
X14862Y-14469
X15650Y-13681
X15650Y-14469
T7
X14134Y-31693
T8
X22343Y-13976
X22343Y-14764
X23327Y-13976
X23327Y-14764
T9
X31535Y-31693
T10
X20465Y-12909
X25205Y-12909
T11
X12992Y-31693
X32677Y-31693
T0
M30
