G04 (created by PCBNEW (2013-07-07 BZR 4022)-stable) date 10/24/2013 12:22:47 AM*
%MOIN*%
G04 Gerber Fmt 3.4, Leading zero omitted, Abs format*
%FSLAX34Y34*%
G01*
G70*
G90*
G04 APERTURE LIST*
%ADD10C,0.00590551*%
G04 APERTURE END LIST*
G54D10*
G36*
X13652Y-31630D02*
X13650Y-31773D01*
X13620Y-31904D01*
X13570Y-32018D01*
X13492Y-32128D01*
X13402Y-32214D01*
X13289Y-32286D01*
X13172Y-32331D01*
X13040Y-32354D01*
X12915Y-32351D01*
X12784Y-32323D01*
X12670Y-32273D01*
X12560Y-32196D01*
X12473Y-32106D01*
X12400Y-31993D01*
X12355Y-31878D01*
X12330Y-31745D01*
X12332Y-31621D01*
X12360Y-31489D01*
X12409Y-31375D01*
X12485Y-31264D01*
X12574Y-31177D01*
X12687Y-31103D01*
X12802Y-31057D01*
X12934Y-31031D01*
X13058Y-31032D01*
X13190Y-31059D01*
X13305Y-31107D01*
X13417Y-31183D01*
X13504Y-31271D01*
X13579Y-31383D01*
X13626Y-31498D01*
X13652Y-31630D01*
X13652Y-31630D01*
G37*
G36*
X14345Y-13656D02*
X14344Y-13713D01*
X14331Y-13768D01*
X14311Y-13813D01*
X14278Y-13860D01*
X14243Y-13893D01*
X14195Y-13924D01*
X14150Y-13942D01*
X14093Y-13952D01*
X14044Y-13951D01*
X13988Y-13938D01*
X13944Y-13919D01*
X13896Y-13886D01*
X13863Y-13851D01*
X13832Y-13803D01*
X13814Y-13758D01*
X13803Y-13701D01*
X13804Y-13653D01*
X13816Y-13596D01*
X13835Y-13552D01*
X13868Y-13504D01*
X13902Y-13471D01*
X13951Y-13439D01*
X13995Y-13421D01*
X14052Y-13410D01*
X14100Y-13410D01*
X14157Y-13422D01*
X14201Y-13440D01*
X14250Y-13473D01*
X14283Y-13507D01*
X14315Y-13556D01*
X14333Y-13599D01*
X14345Y-13656D01*
X14345Y-13656D01*
G37*
G36*
X14345Y-14444D02*
X14344Y-14500D01*
X14331Y-14556D01*
X14311Y-14600D01*
X14278Y-14647D01*
X14243Y-14681D01*
X14195Y-14711D01*
X14150Y-14729D01*
X14093Y-14739D01*
X14044Y-14738D01*
X13988Y-14726D01*
X13944Y-14706D01*
X13896Y-14673D01*
X13863Y-14639D01*
X13832Y-14590D01*
X13814Y-14545D01*
X13803Y-14488D01*
X13804Y-14440D01*
X13816Y-14383D01*
X13835Y-14339D01*
X13868Y-14291D01*
X13902Y-14258D01*
X13951Y-14226D01*
X13995Y-14208D01*
X14052Y-14197D01*
X14100Y-14198D01*
X14157Y-14209D01*
X14201Y-14228D01*
X14250Y-14261D01*
X14283Y-14294D01*
X14315Y-14343D01*
X14333Y-14387D01*
X14345Y-14444D01*
X14345Y-14444D01*
G37*
G36*
X14444Y-31664D02*
X14443Y-31729D01*
X14428Y-31793D01*
X14405Y-31844D01*
X14368Y-31898D01*
X14327Y-31937D01*
X14272Y-31972D01*
X14219Y-31992D01*
X14155Y-32003D01*
X14099Y-32002D01*
X14035Y-31988D01*
X13983Y-31966D01*
X13929Y-31928D01*
X13891Y-31888D01*
X13855Y-31833D01*
X13834Y-31781D01*
X13822Y-31716D01*
X13823Y-31660D01*
X13837Y-31596D01*
X13859Y-31544D01*
X13896Y-31490D01*
X13936Y-31451D01*
X13991Y-31415D01*
X14043Y-31394D01*
X14108Y-31382D01*
X14163Y-31382D01*
X14228Y-31395D01*
X14279Y-31417D01*
X14334Y-31454D01*
X14373Y-31493D01*
X14410Y-31549D01*
X14431Y-31600D01*
X14444Y-31664D01*
X14444Y-31664D01*
G37*
G36*
X15132Y-13656D02*
X15131Y-13713D01*
X15119Y-13768D01*
X15099Y-13813D01*
X15066Y-13860D01*
X15031Y-13893D01*
X14982Y-13924D01*
X14937Y-13942D01*
X14880Y-13952D01*
X14832Y-13951D01*
X14776Y-13938D01*
X14731Y-13919D01*
X14684Y-13886D01*
X14650Y-13851D01*
X14619Y-13803D01*
X14601Y-13758D01*
X14591Y-13701D01*
X14592Y-13653D01*
X14604Y-13596D01*
X14622Y-13552D01*
X14655Y-13504D01*
X14689Y-13471D01*
X14738Y-13439D01*
X14782Y-13421D01*
X14840Y-13410D01*
X14887Y-13410D01*
X14945Y-13422D01*
X14988Y-13440D01*
X15037Y-13473D01*
X15070Y-13507D01*
X15103Y-13556D01*
X15121Y-13599D01*
X15132Y-13656D01*
X15132Y-13656D01*
G37*
G36*
X15132Y-14444D02*
X15131Y-14500D01*
X15119Y-14556D01*
X15099Y-14600D01*
X15066Y-14647D01*
X15031Y-14681D01*
X14982Y-14711D01*
X14937Y-14729D01*
X14880Y-14739D01*
X14832Y-14738D01*
X14776Y-14726D01*
X14731Y-14706D01*
X14684Y-14673D01*
X14650Y-14639D01*
X14619Y-14590D01*
X14601Y-14545D01*
X14591Y-14488D01*
X14592Y-14440D01*
X14604Y-14383D01*
X14622Y-14339D01*
X14655Y-14291D01*
X14689Y-14258D01*
X14738Y-14226D01*
X14782Y-14208D01*
X14840Y-14197D01*
X14887Y-14198D01*
X14945Y-14209D01*
X14988Y-14228D01*
X15037Y-14261D01*
X15070Y-14294D01*
X15103Y-14343D01*
X15121Y-14387D01*
X15132Y-14444D01*
X15132Y-14444D01*
G37*
G36*
X15920Y-13656D02*
X15919Y-13713D01*
X15906Y-13768D01*
X15886Y-13813D01*
X15853Y-13860D01*
X15818Y-13893D01*
X15770Y-13924D01*
X15724Y-13942D01*
X15668Y-13952D01*
X15619Y-13951D01*
X15563Y-13938D01*
X15519Y-13919D01*
X15471Y-13886D01*
X15438Y-13851D01*
X15406Y-13803D01*
X15389Y-13758D01*
X15378Y-13701D01*
X15379Y-13653D01*
X15391Y-13596D01*
X15410Y-13552D01*
X15443Y-13504D01*
X15477Y-13471D01*
X15526Y-13439D01*
X15570Y-13421D01*
X15627Y-13410D01*
X15675Y-13410D01*
X15732Y-13422D01*
X15776Y-13440D01*
X15824Y-13473D01*
X15858Y-13507D01*
X15890Y-13556D01*
X15908Y-13599D01*
X15920Y-13656D01*
X15920Y-13656D01*
G37*
G36*
X15920Y-14444D02*
X15919Y-14500D01*
X15906Y-14556D01*
X15886Y-14600D01*
X15853Y-14647D01*
X15818Y-14681D01*
X15770Y-14711D01*
X15724Y-14729D01*
X15668Y-14739D01*
X15619Y-14738D01*
X15563Y-14726D01*
X15519Y-14706D01*
X15471Y-14673D01*
X15438Y-14639D01*
X15406Y-14590D01*
X15389Y-14545D01*
X15378Y-14488D01*
X15379Y-14440D01*
X15391Y-14383D01*
X15410Y-14339D01*
X15443Y-14291D01*
X15477Y-14258D01*
X15526Y-14226D01*
X15570Y-14208D01*
X15627Y-14197D01*
X15675Y-14198D01*
X15732Y-14209D01*
X15776Y-14228D01*
X15824Y-14261D01*
X15858Y-14294D01*
X15890Y-14343D01*
X15908Y-14387D01*
X15920Y-14444D01*
X15920Y-14444D01*
G37*
G36*
X20430Y-24496D02*
X20430Y-24522D01*
X20423Y-24552D01*
X20414Y-24573D01*
X20396Y-24598D01*
X20380Y-24613D01*
X20354Y-24630D01*
X20334Y-24638D01*
X20303Y-24643D01*
X20281Y-24643D01*
X20251Y-24636D01*
X20231Y-24627D01*
X20205Y-24609D01*
X20190Y-24594D01*
X20173Y-24567D01*
X20165Y-24547D01*
X20159Y-24516D01*
X20159Y-24495D01*
X20166Y-24464D01*
X20174Y-24444D01*
X20192Y-24418D01*
X20208Y-24403D01*
X20234Y-24386D01*
X20254Y-24378D01*
X20285Y-24372D01*
X20306Y-24372D01*
X20338Y-24378D01*
X20357Y-24386D01*
X20384Y-24404D01*
X20398Y-24419D01*
X20416Y-24446D01*
X20424Y-24465D01*
X20430Y-24496D01*
X20430Y-24496D01*
G37*
G36*
X21175Y-12841D02*
X21172Y-12996D01*
X21141Y-13136D01*
X21086Y-13260D01*
X21003Y-13377D01*
X20905Y-13470D01*
X20784Y-13547D01*
X20658Y-13596D01*
X20517Y-13621D01*
X20382Y-13618D01*
X20241Y-13587D01*
X20118Y-13533D01*
X20000Y-13451D01*
X19906Y-13354D01*
X19828Y-13233D01*
X19779Y-13108D01*
X19753Y-12966D01*
X19755Y-12832D01*
X19785Y-12691D01*
X19837Y-12567D01*
X19919Y-12448D01*
X20015Y-12354D01*
X20136Y-12275D01*
X20260Y-12225D01*
X20402Y-12198D01*
X20536Y-12199D01*
X20678Y-12228D01*
X20801Y-12280D01*
X20921Y-12361D01*
X21015Y-12456D01*
X21096Y-12576D01*
X21146Y-12700D01*
X21175Y-12841D01*
X21175Y-12841D01*
G37*
G36*
X21401Y-15529D02*
X21401Y-15579D01*
X21389Y-15629D01*
X21372Y-15668D01*
X21342Y-15710D01*
X21311Y-15740D01*
X21268Y-15767D01*
X21228Y-15783D01*
X21177Y-15792D01*
X21135Y-15791D01*
X21084Y-15780D01*
X21045Y-15763D01*
X21003Y-15733D01*
X20973Y-15703D01*
X20945Y-15659D01*
X20930Y-15620D01*
X20920Y-15568D01*
X20921Y-15526D01*
X20932Y-15475D01*
X20948Y-15437D01*
X20978Y-15393D01*
X21008Y-15364D01*
X21051Y-15335D01*
X21090Y-15320D01*
X21142Y-15310D01*
X21183Y-15310D01*
X21235Y-15321D01*
X21273Y-15337D01*
X21317Y-15366D01*
X21346Y-15396D01*
X21375Y-15440D01*
X21391Y-15478D01*
X21401Y-15529D01*
X21401Y-15529D01*
G37*
G36*
X22090Y-15529D02*
X22090Y-15579D01*
X22078Y-15629D01*
X22061Y-15668D01*
X22031Y-15710D01*
X22000Y-15740D01*
X21957Y-15767D01*
X21917Y-15783D01*
X21866Y-15792D01*
X21824Y-15791D01*
X21773Y-15780D01*
X21734Y-15763D01*
X21692Y-15733D01*
X21662Y-15703D01*
X21634Y-15659D01*
X21619Y-15620D01*
X21609Y-15568D01*
X21610Y-15526D01*
X21621Y-15475D01*
X21637Y-15437D01*
X21667Y-15393D01*
X21697Y-15364D01*
X21740Y-15335D01*
X21779Y-15320D01*
X21831Y-15310D01*
X21872Y-15310D01*
X21924Y-15321D01*
X21962Y-15337D01*
X22006Y-15366D01*
X22035Y-15396D01*
X22064Y-15440D01*
X22080Y-15478D01*
X22090Y-15529D01*
X22090Y-15529D01*
G37*
G36*
X22652Y-13948D02*
X22652Y-14013D01*
X22637Y-14076D01*
X22614Y-14128D01*
X22577Y-14181D01*
X22536Y-14220D01*
X22481Y-14255D01*
X22428Y-14276D01*
X22364Y-14287D01*
X22307Y-14286D01*
X22243Y-14272D01*
X22192Y-14249D01*
X22138Y-14212D01*
X22099Y-14171D01*
X22064Y-14116D01*
X22043Y-14064D01*
X22031Y-13999D01*
X22032Y-13944D01*
X22046Y-13879D01*
X22068Y-13828D01*
X22105Y-13773D01*
X22145Y-13735D01*
X22200Y-13698D01*
X22251Y-13678D01*
X22316Y-13665D01*
X22372Y-13666D01*
X22437Y-13679D01*
X22488Y-13700D01*
X22543Y-13737D01*
X22582Y-13777D01*
X22619Y-13832D01*
X22640Y-13883D01*
X22652Y-13948D01*
X22652Y-13948D01*
G37*
G36*
X22652Y-14735D02*
X22652Y-14800D01*
X22637Y-14864D01*
X22614Y-14915D01*
X22577Y-14969D01*
X22536Y-15008D01*
X22481Y-15043D01*
X22428Y-15063D01*
X22364Y-15074D01*
X22307Y-15073D01*
X22243Y-15059D01*
X22192Y-15037D01*
X22138Y-14999D01*
X22099Y-14959D01*
X22064Y-14904D01*
X22043Y-14852D01*
X22031Y-14787D01*
X22032Y-14731D01*
X22046Y-14667D01*
X22068Y-14615D01*
X22105Y-14561D01*
X22145Y-14522D01*
X22200Y-14486D01*
X22251Y-14465D01*
X22316Y-14453D01*
X22372Y-14453D01*
X22437Y-14466D01*
X22488Y-14488D01*
X22543Y-14525D01*
X22582Y-14564D01*
X22619Y-14619D01*
X22640Y-14670D01*
X22652Y-14735D01*
X22652Y-14735D01*
G37*
G36*
X23075Y-15529D02*
X23074Y-15579D01*
X23063Y-15629D01*
X23045Y-15668D01*
X23015Y-15710D01*
X22985Y-15740D01*
X22941Y-15767D01*
X22901Y-15783D01*
X22850Y-15792D01*
X22808Y-15791D01*
X22757Y-15780D01*
X22718Y-15763D01*
X22676Y-15733D01*
X22646Y-15703D01*
X22618Y-15659D01*
X22603Y-15620D01*
X22593Y-15568D01*
X22594Y-15526D01*
X22605Y-15475D01*
X22621Y-15437D01*
X22651Y-15393D01*
X22681Y-15364D01*
X22725Y-15335D01*
X22763Y-15320D01*
X22815Y-15310D01*
X22857Y-15310D01*
X22908Y-15321D01*
X22947Y-15337D01*
X22990Y-15366D01*
X23019Y-15396D01*
X23049Y-15440D01*
X23064Y-15478D01*
X23075Y-15529D01*
X23075Y-15529D01*
G37*
G36*
X23637Y-13948D02*
X23636Y-14013D01*
X23621Y-14076D01*
X23598Y-14128D01*
X23561Y-14181D01*
X23520Y-14220D01*
X23465Y-14255D01*
X23412Y-14276D01*
X23348Y-14287D01*
X23292Y-14286D01*
X23228Y-14272D01*
X23176Y-14249D01*
X23122Y-14212D01*
X23083Y-14171D01*
X23048Y-14116D01*
X23027Y-14064D01*
X23015Y-13999D01*
X23016Y-13944D01*
X23030Y-13879D01*
X23052Y-13828D01*
X23089Y-13773D01*
X23129Y-13735D01*
X23184Y-13698D01*
X23236Y-13678D01*
X23301Y-13665D01*
X23356Y-13666D01*
X23421Y-13679D01*
X23472Y-13700D01*
X23527Y-13737D01*
X23566Y-13777D01*
X23603Y-13832D01*
X23624Y-13883D01*
X23637Y-13948D01*
X23637Y-13948D01*
G37*
G36*
X23637Y-14735D02*
X23636Y-14800D01*
X23621Y-14864D01*
X23598Y-14915D01*
X23561Y-14969D01*
X23520Y-15008D01*
X23465Y-15043D01*
X23412Y-15063D01*
X23348Y-15074D01*
X23292Y-15073D01*
X23228Y-15059D01*
X23176Y-15037D01*
X23122Y-14999D01*
X23083Y-14959D01*
X23048Y-14904D01*
X23027Y-14852D01*
X23015Y-14787D01*
X23016Y-14731D01*
X23030Y-14667D01*
X23052Y-14615D01*
X23089Y-14561D01*
X23129Y-14522D01*
X23184Y-14486D01*
X23236Y-14465D01*
X23301Y-14453D01*
X23356Y-14453D01*
X23421Y-14466D01*
X23472Y-14488D01*
X23527Y-14525D01*
X23566Y-14564D01*
X23603Y-14619D01*
X23624Y-14670D01*
X23637Y-14735D01*
X23637Y-14735D01*
G37*
G36*
X24059Y-15529D02*
X24058Y-15579D01*
X24047Y-15629D01*
X24029Y-15668D01*
X24000Y-15710D01*
X23969Y-15740D01*
X23925Y-15767D01*
X23886Y-15783D01*
X23835Y-15792D01*
X23792Y-15791D01*
X23742Y-15780D01*
X23703Y-15763D01*
X23660Y-15733D01*
X23631Y-15703D01*
X23603Y-15659D01*
X23587Y-15620D01*
X23578Y-15568D01*
X23578Y-15526D01*
X23589Y-15475D01*
X23606Y-15437D01*
X23635Y-15393D01*
X23665Y-15364D01*
X23709Y-15335D01*
X23748Y-15320D01*
X23799Y-15310D01*
X23841Y-15310D01*
X23892Y-15321D01*
X23931Y-15337D01*
X23974Y-15366D01*
X24004Y-15396D01*
X24033Y-15440D01*
X24049Y-15478D01*
X24059Y-15529D01*
X24059Y-15529D01*
G37*
G36*
X24748Y-15529D02*
X24747Y-15579D01*
X24736Y-15629D01*
X24718Y-15668D01*
X24689Y-15710D01*
X24658Y-15740D01*
X24614Y-15767D01*
X24574Y-15783D01*
X24524Y-15792D01*
X24481Y-15791D01*
X24431Y-15780D01*
X24392Y-15763D01*
X24349Y-15733D01*
X24320Y-15703D01*
X24292Y-15659D01*
X24276Y-15620D01*
X24267Y-15568D01*
X24267Y-15526D01*
X24278Y-15475D01*
X24295Y-15437D01*
X24324Y-15393D01*
X24354Y-15364D01*
X24398Y-15335D01*
X24437Y-15320D01*
X24488Y-15310D01*
X24530Y-15310D01*
X24581Y-15321D01*
X24620Y-15337D01*
X24663Y-15366D01*
X24693Y-15396D01*
X24722Y-15440D01*
X24738Y-15478D01*
X24748Y-15529D01*
X24748Y-15529D01*
G37*
G36*
X25915Y-12841D02*
X25913Y-12996D01*
X25881Y-13136D01*
X25826Y-13260D01*
X25743Y-13377D01*
X25645Y-13470D01*
X25524Y-13547D01*
X25398Y-13596D01*
X25257Y-13621D01*
X25122Y-13618D01*
X24981Y-13587D01*
X24858Y-13533D01*
X24740Y-13451D01*
X24646Y-13354D01*
X24568Y-13233D01*
X24519Y-13108D01*
X24493Y-12966D01*
X24495Y-12832D01*
X24525Y-12691D01*
X24578Y-12567D01*
X24659Y-12448D01*
X24755Y-12354D01*
X24876Y-12275D01*
X25000Y-12225D01*
X25142Y-12198D01*
X25276Y-12199D01*
X25418Y-12228D01*
X25541Y-12280D01*
X25661Y-12361D01*
X25756Y-12456D01*
X25836Y-12576D01*
X25887Y-12700D01*
X25915Y-12841D01*
X25915Y-12841D01*
G37*
G36*
X31469Y-20653D02*
X31466Y-20660D01*
X31464Y-20683D01*
X31455Y-20710D01*
X31441Y-20736D01*
X31423Y-20758D01*
X31401Y-20776D01*
X31376Y-20789D01*
X31348Y-20798D01*
X31313Y-20801D01*
X31178Y-20801D01*
X31175Y-20801D01*
X31170Y-20801D01*
X31170Y-20801D01*
X31141Y-20797D01*
X31141Y-20797D01*
X31141Y-20797D01*
X31114Y-20789D01*
X31088Y-20775D01*
X31067Y-20756D01*
X31048Y-20734D01*
X31035Y-20709D01*
X31027Y-20680D01*
X31024Y-20652D01*
X31027Y-20623D01*
X31036Y-20596D01*
X31050Y-20570D01*
X31068Y-20548D01*
X31090Y-20530D01*
X31116Y-20517D01*
X31143Y-20508D01*
X31178Y-20505D01*
X31313Y-20505D01*
X31316Y-20505D01*
X31321Y-20506D01*
X31321Y-20506D01*
X31350Y-20509D01*
X31350Y-20509D01*
X31350Y-20509D01*
X31377Y-20517D01*
X31403Y-20532D01*
X31424Y-20550D01*
X31443Y-20573D01*
X31456Y-20598D01*
X31464Y-20626D01*
X31466Y-20647D01*
X31469Y-20653D01*
X31469Y-20653D01*
G37*
G36*
X31469Y-21153D02*
X31466Y-21160D01*
X31464Y-21183D01*
X31455Y-21210D01*
X31441Y-21236D01*
X31423Y-21258D01*
X31401Y-21276D01*
X31376Y-21289D01*
X31348Y-21298D01*
X31313Y-21301D01*
X31178Y-21301D01*
X31175Y-21301D01*
X31170Y-21301D01*
X31170Y-21301D01*
X31141Y-21297D01*
X31141Y-21297D01*
X31141Y-21297D01*
X31114Y-21289D01*
X31088Y-21275D01*
X31067Y-21256D01*
X31048Y-21234D01*
X31035Y-21209D01*
X31027Y-21180D01*
X31024Y-21152D01*
X31027Y-21123D01*
X31036Y-21096D01*
X31050Y-21070D01*
X31068Y-21048D01*
X31090Y-21030D01*
X31116Y-21017D01*
X31143Y-21008D01*
X31178Y-21005D01*
X31313Y-21005D01*
X31316Y-21005D01*
X31321Y-21006D01*
X31321Y-21006D01*
X31350Y-21009D01*
X31350Y-21009D01*
X31350Y-21009D01*
X31377Y-21017D01*
X31403Y-21032D01*
X31424Y-21050D01*
X31443Y-21073D01*
X31456Y-21098D01*
X31464Y-21126D01*
X31466Y-21147D01*
X31469Y-21153D01*
X31469Y-21153D01*
G37*
G36*
X31469Y-21653D02*
X31466Y-21660D01*
X31464Y-21683D01*
X31455Y-21710D01*
X31441Y-21736D01*
X31423Y-21758D01*
X31401Y-21776D01*
X31376Y-21789D01*
X31348Y-21798D01*
X31313Y-21801D01*
X31178Y-21801D01*
X31175Y-21801D01*
X31170Y-21801D01*
X31170Y-21801D01*
X31141Y-21797D01*
X31141Y-21797D01*
X31141Y-21797D01*
X31114Y-21789D01*
X31088Y-21775D01*
X31067Y-21756D01*
X31048Y-21734D01*
X31035Y-21709D01*
X31027Y-21680D01*
X31024Y-21652D01*
X31027Y-21623D01*
X31036Y-21596D01*
X31050Y-21570D01*
X31068Y-21548D01*
X31090Y-21530D01*
X31116Y-21517D01*
X31143Y-21508D01*
X31178Y-21505D01*
X31313Y-21505D01*
X31316Y-21505D01*
X31321Y-21506D01*
X31321Y-21506D01*
X31350Y-21509D01*
X31350Y-21509D01*
X31350Y-21509D01*
X31377Y-21517D01*
X31403Y-21532D01*
X31424Y-21550D01*
X31443Y-21573D01*
X31456Y-21598D01*
X31464Y-21626D01*
X31466Y-21647D01*
X31469Y-21653D01*
X31469Y-21653D01*
G37*
G36*
X31469Y-22153D02*
X31466Y-22160D01*
X31464Y-22183D01*
X31455Y-22210D01*
X31441Y-22236D01*
X31423Y-22258D01*
X31401Y-22276D01*
X31376Y-22289D01*
X31348Y-22298D01*
X31313Y-22301D01*
X31178Y-22301D01*
X31175Y-22301D01*
X31170Y-22301D01*
X31170Y-22301D01*
X31141Y-22297D01*
X31141Y-22297D01*
X31141Y-22297D01*
X31114Y-22289D01*
X31088Y-22275D01*
X31067Y-22256D01*
X31048Y-22234D01*
X31035Y-22209D01*
X31027Y-22180D01*
X31024Y-22152D01*
X31027Y-22123D01*
X31036Y-22096D01*
X31050Y-22070D01*
X31068Y-22048D01*
X31090Y-22030D01*
X31116Y-22017D01*
X31143Y-22008D01*
X31178Y-22005D01*
X31313Y-22005D01*
X31316Y-22005D01*
X31321Y-22006D01*
X31321Y-22006D01*
X31350Y-22009D01*
X31350Y-22009D01*
X31350Y-22009D01*
X31377Y-22017D01*
X31403Y-22032D01*
X31424Y-22050D01*
X31443Y-22073D01*
X31456Y-22098D01*
X31464Y-22126D01*
X31466Y-22147D01*
X31469Y-22153D01*
X31469Y-22153D01*
G37*
G36*
X31469Y-22653D02*
X31466Y-22660D01*
X31464Y-22683D01*
X31455Y-22710D01*
X31441Y-22736D01*
X31423Y-22758D01*
X31401Y-22776D01*
X31376Y-22789D01*
X31348Y-22798D01*
X31313Y-22801D01*
X31178Y-22801D01*
X31175Y-22801D01*
X31170Y-22801D01*
X31170Y-22801D01*
X31141Y-22797D01*
X31141Y-22797D01*
X31141Y-22797D01*
X31114Y-22789D01*
X31088Y-22775D01*
X31067Y-22756D01*
X31048Y-22734D01*
X31035Y-22709D01*
X31027Y-22680D01*
X31024Y-22652D01*
X31027Y-22623D01*
X31036Y-22596D01*
X31050Y-22570D01*
X31068Y-22548D01*
X31090Y-22530D01*
X31116Y-22517D01*
X31143Y-22508D01*
X31178Y-22505D01*
X31313Y-22505D01*
X31316Y-22505D01*
X31321Y-22506D01*
X31321Y-22506D01*
X31350Y-22509D01*
X31350Y-22509D01*
X31350Y-22509D01*
X31377Y-22517D01*
X31403Y-22532D01*
X31424Y-22550D01*
X31443Y-22573D01*
X31456Y-22598D01*
X31464Y-22626D01*
X31466Y-22647D01*
X31469Y-22653D01*
X31469Y-22653D01*
G37*
G36*
X31945Y-31654D02*
X31944Y-31742D01*
X31925Y-31825D01*
X31894Y-31894D01*
X31846Y-31963D01*
X31790Y-32016D01*
X31719Y-32061D01*
X31648Y-32089D01*
X31564Y-32104D01*
X31488Y-32102D01*
X31405Y-32084D01*
X31336Y-32053D01*
X31266Y-32005D01*
X31213Y-31950D01*
X31167Y-31879D01*
X31139Y-31808D01*
X31124Y-31724D01*
X31125Y-31649D01*
X31143Y-31565D01*
X31172Y-31496D01*
X31221Y-31425D01*
X31275Y-31373D01*
X31346Y-31326D01*
X31416Y-31298D01*
X31500Y-31282D01*
X31575Y-31282D01*
X31660Y-31299D01*
X31729Y-31328D01*
X31800Y-31377D01*
X31853Y-31430D01*
X31900Y-31501D01*
X31929Y-31570D01*
X31945Y-31654D01*
X31945Y-31654D01*
G37*
G36*
X31967Y-20654D02*
X31964Y-20683D01*
X31955Y-20710D01*
X31941Y-20736D01*
X31923Y-20758D01*
X31901Y-20776D01*
X31876Y-20789D01*
X31848Y-20798D01*
X31813Y-20801D01*
X31678Y-20801D01*
X31675Y-20801D01*
X31670Y-20801D01*
X31670Y-20801D01*
X31641Y-20797D01*
X31641Y-20797D01*
X31641Y-20797D01*
X31614Y-20789D01*
X31588Y-20775D01*
X31567Y-20756D01*
X31548Y-20734D01*
X31535Y-20709D01*
X31527Y-20680D01*
X31525Y-20660D01*
X31522Y-20653D01*
X31525Y-20647D01*
X31527Y-20623D01*
X31536Y-20596D01*
X31550Y-20570D01*
X31568Y-20548D01*
X31590Y-20530D01*
X31616Y-20517D01*
X31643Y-20508D01*
X31678Y-20505D01*
X31813Y-20505D01*
X31816Y-20505D01*
X31821Y-20506D01*
X31821Y-20506D01*
X31850Y-20509D01*
X31850Y-20509D01*
X31850Y-20509D01*
X31877Y-20517D01*
X31903Y-20532D01*
X31924Y-20550D01*
X31943Y-20573D01*
X31956Y-20598D01*
X31964Y-20626D01*
X31967Y-20654D01*
X31967Y-20654D01*
G37*
G36*
X31967Y-21154D02*
X31964Y-21183D01*
X31955Y-21210D01*
X31941Y-21236D01*
X31923Y-21258D01*
X31901Y-21276D01*
X31876Y-21289D01*
X31848Y-21298D01*
X31813Y-21301D01*
X31678Y-21301D01*
X31675Y-21301D01*
X31670Y-21301D01*
X31670Y-21301D01*
X31641Y-21297D01*
X31641Y-21297D01*
X31641Y-21297D01*
X31614Y-21289D01*
X31588Y-21275D01*
X31567Y-21256D01*
X31548Y-21234D01*
X31535Y-21209D01*
X31527Y-21180D01*
X31525Y-21160D01*
X31522Y-21153D01*
X31525Y-21147D01*
X31527Y-21123D01*
X31536Y-21096D01*
X31550Y-21070D01*
X31568Y-21048D01*
X31590Y-21030D01*
X31616Y-21017D01*
X31643Y-21008D01*
X31678Y-21005D01*
X31813Y-21005D01*
X31816Y-21005D01*
X31821Y-21006D01*
X31821Y-21006D01*
X31850Y-21009D01*
X31850Y-21009D01*
X31850Y-21009D01*
X31877Y-21017D01*
X31903Y-21032D01*
X31924Y-21050D01*
X31943Y-21073D01*
X31956Y-21098D01*
X31964Y-21126D01*
X31967Y-21154D01*
X31967Y-21154D01*
G37*
G36*
X31967Y-21654D02*
X31964Y-21683D01*
X31955Y-21710D01*
X31941Y-21736D01*
X31923Y-21758D01*
X31901Y-21776D01*
X31876Y-21789D01*
X31848Y-21798D01*
X31813Y-21801D01*
X31678Y-21801D01*
X31675Y-21801D01*
X31670Y-21801D01*
X31670Y-21801D01*
X31641Y-21797D01*
X31641Y-21797D01*
X31641Y-21797D01*
X31614Y-21789D01*
X31588Y-21775D01*
X31567Y-21756D01*
X31548Y-21734D01*
X31535Y-21709D01*
X31527Y-21680D01*
X31525Y-21660D01*
X31522Y-21653D01*
X31525Y-21647D01*
X31527Y-21623D01*
X31536Y-21596D01*
X31550Y-21570D01*
X31568Y-21548D01*
X31590Y-21530D01*
X31616Y-21517D01*
X31643Y-21508D01*
X31678Y-21505D01*
X31813Y-21505D01*
X31816Y-21505D01*
X31821Y-21506D01*
X31821Y-21506D01*
X31850Y-21509D01*
X31850Y-21509D01*
X31850Y-21509D01*
X31877Y-21517D01*
X31903Y-21532D01*
X31924Y-21550D01*
X31943Y-21573D01*
X31956Y-21598D01*
X31964Y-21626D01*
X31967Y-21654D01*
X31967Y-21654D01*
G37*
G36*
X31967Y-22154D02*
X31964Y-22183D01*
X31955Y-22210D01*
X31941Y-22236D01*
X31923Y-22258D01*
X31901Y-22276D01*
X31876Y-22289D01*
X31848Y-22298D01*
X31813Y-22301D01*
X31678Y-22301D01*
X31675Y-22301D01*
X31670Y-22301D01*
X31670Y-22301D01*
X31641Y-22297D01*
X31641Y-22297D01*
X31641Y-22297D01*
X31614Y-22289D01*
X31588Y-22275D01*
X31567Y-22256D01*
X31548Y-22234D01*
X31535Y-22209D01*
X31527Y-22180D01*
X31525Y-22160D01*
X31522Y-22153D01*
X31525Y-22147D01*
X31527Y-22123D01*
X31536Y-22096D01*
X31550Y-22070D01*
X31568Y-22048D01*
X31590Y-22030D01*
X31616Y-22017D01*
X31643Y-22008D01*
X31678Y-22005D01*
X31813Y-22005D01*
X31816Y-22005D01*
X31821Y-22006D01*
X31821Y-22006D01*
X31850Y-22009D01*
X31850Y-22009D01*
X31850Y-22009D01*
X31877Y-22017D01*
X31903Y-22032D01*
X31924Y-22050D01*
X31943Y-22073D01*
X31956Y-22098D01*
X31964Y-22126D01*
X31967Y-22154D01*
X31967Y-22154D01*
G37*
G36*
X31967Y-22654D02*
X31964Y-22683D01*
X31955Y-22710D01*
X31941Y-22736D01*
X31923Y-22758D01*
X31901Y-22776D01*
X31876Y-22789D01*
X31848Y-22798D01*
X31813Y-22801D01*
X31678Y-22801D01*
X31675Y-22801D01*
X31670Y-22801D01*
X31670Y-22801D01*
X31641Y-22797D01*
X31641Y-22797D01*
X31641Y-22797D01*
X31614Y-22789D01*
X31588Y-22775D01*
X31567Y-22756D01*
X31548Y-22734D01*
X31535Y-22709D01*
X31527Y-22680D01*
X31525Y-22660D01*
X31522Y-22653D01*
X31525Y-22647D01*
X31527Y-22623D01*
X31536Y-22596D01*
X31550Y-22570D01*
X31568Y-22548D01*
X31590Y-22530D01*
X31616Y-22517D01*
X31643Y-22508D01*
X31678Y-22505D01*
X31813Y-22505D01*
X31816Y-22505D01*
X31821Y-22506D01*
X31821Y-22506D01*
X31850Y-22509D01*
X31850Y-22509D01*
X31850Y-22509D01*
X31877Y-22517D01*
X31903Y-22532D01*
X31924Y-22550D01*
X31943Y-22573D01*
X31956Y-22598D01*
X31964Y-22626D01*
X31967Y-22654D01*
X31967Y-22654D01*
G37*
G36*
X33337Y-31630D02*
X33335Y-31773D01*
X33305Y-31904D01*
X33255Y-32018D01*
X33177Y-32128D01*
X33087Y-32214D01*
X32974Y-32286D01*
X32857Y-32331D01*
X32725Y-32354D01*
X32600Y-32351D01*
X32469Y-32323D01*
X32355Y-32273D01*
X32245Y-32196D01*
X32158Y-32106D01*
X32085Y-31993D01*
X32040Y-31878D01*
X32015Y-31745D01*
X32017Y-31621D01*
X32045Y-31489D01*
X32094Y-31375D01*
X32170Y-31264D01*
X32259Y-31177D01*
X32372Y-31103D01*
X32487Y-31057D01*
X32619Y-31031D01*
X32743Y-31032D01*
X32876Y-31059D01*
X32990Y-31107D01*
X33102Y-31183D01*
X33189Y-31271D01*
X33264Y-31383D01*
X33311Y-31498D01*
X33337Y-31630D01*
X33337Y-31630D01*
G37*
M02*
